<svg width="390" height="64" viewBox="0 0 390 64" fill="none" xmlns="http://www.w3.org/2000/svg">
<path d="M313.54 39.6402L313.9 39.6002V39.2402C313.88 38.5602 313.56 22.6602 307.36 17.0802C305.78 15.6602 303.94 15.0402 301.9 15.2202C294.2 15.8802 289.68 23.7802 289.82 36.3602C289.86 43.0402 292.14 46.8402 294.84 49.0402C297.54 51.2602 300.66 51.8802 302.38 52.2202C302.92 52.3402 303.54 52.3802 304.18 52.3802C308.06 52.3802 313.26 50.6802 313.5 50.6002L313.86 50.4802L313.76 50.1202C313.76 50.1202 313.3 48.1402 312.96 47.0002C312.68 45.9002 312.22 43.8402 312.22 43.8402L312.12 43.4402L311.72 43.5402C311.72 43.5402 303.94 45.4002 301.78 45.0202C300.38 44.7602 299.08 42.6402 298.48 41.4202C299.78 41.2402 303.16 40.8002 305.38 40.5602C307.9 40.4002 313.5 39.6402 313.54 39.6402ZM305.74 34.1402C304.88 34.2202 302.78 34.4002 301.36 34.6402L298.04 35.2002C297.88 31.4202 298.06 22.9602 300.72 22.6002C300.84 22.5802 300.94 22.5802 301.06 22.5802C301.58 22.5802 302.08 22.7602 302.52 23.1402C305.06 25.2802 305.64 32.4002 305.74 34.1402Z" fill="#137289"/>
<path d="M285.281 48.8001C285.281 48.8001 285.061 44.9601 284.941 41.3801C284.881 37.1401 284.841 30.3401 284.941 25.1001C285.001 19.5401 285.181 3.84012 285.181 3.84012V3.54012L284.901 3.46012C284.901 3.46012 283.401 2.98012 281.761 2.80012C280.421 2.64012 278.301 2.12012 278.281 2.12012L277.781 2.00012V2.50012C277.781 2.50012 277.841 11.9601 277.721 16.3001C277.661 18.5201 277.541 20.7801 277.461 22.1401C276.301 20.4201 273.701 17.3601 269.661 17.3601H269.581C266.121 17.4201 258.401 21.7601 257.921 34.3201C257.901 34.7001 257.901 35.0601 257.901 35.4001C257.901 45.6801 263.921 50.1401 269.701 50.9001C269.981 50.9401 270.261 50.9601 270.541 50.9601C274.061 50.9601 276.781 48.1201 277.941 46.6201L278.281 50.1801H278.681C278.681 50.1801 280.561 49.9801 281.601 49.8001C282.641 49.6201 284.961 49.2201 284.961 49.2201L285.301 49.1601V48.8001H285.281ZM272.501 24.9601C274.421 26.1201 276.221 28.6401 276.701 30.8401C277.301 33.7601 277.381 36.0201 276.981 37.9601C276.681 39.7001 275.061 43.2401 271.921 43.2401H271.801C268.201 43.0601 265.641 38.4801 265.481 34.3201C265.321 30.4201 266.021 25.5601 270.201 24.4401C270.841 24.2601 271.641 24.4401 272.501 24.9601Z" fill="#137289"/>
<path d="M191.181 48.8002C191.181 48.8002 190.661 42.3202 190.661 39.4202C190.661 36.5202 191.061 21.2602 191.061 21.1202V20.7802L190.741 20.7202C190.741 20.7202 188.201 20.2402 187.121 20.0202C186.021 19.7402 184.461 19.3802 184.461 19.3802L184.001 19.2802L183.821 21.9402C182.641 20.6002 179.881 18.1802 175.461 18.3402C168.541 18.5402 163.161 24.5802 161.741 33.7602C160.961 38.7002 161.941 43.2602 164.481 46.6002C166.581 49.3602 169.641 51.0802 173.061 51.4802C173.501 51.5402 173.921 51.5602 174.341 51.5602C179.441 51.5602 183.181 48.0802 184.661 46.4602L184.801 49.3602L185.141 49.4002C185.141 49.4002 187.041 49.5802 188.141 49.5202C189.481 49.4602 190.801 49.2402 190.841 49.2202L191.201 49.1602V48.8002H191.181ZM168.941 33.2802C169.421 29.5002 171.401 25.2602 175.521 24.6802C176.661 24.5002 178.081 25.1002 179.421 26.3002C181.201 27.9202 183.081 30.9602 182.921 34.6202C182.881 36.3802 181.481 40.7802 178.841 43.2402C177.501 44.5002 176.001 45.1002 174.401 45.0202C172.921 44.9402 171.721 44.3402 170.801 43.2602C168.801 40.8402 168.541 36.3802 168.941 33.2802Z" fill="#137289"/>
<path d="M382.86 62.9001C381.1 63.4201 378.9 63.6001 376.72 63.6001C371.74 63.6001 366.74 62.6801 366.44 62.6201L366.12 62.5601V59.4601C366.12 58.2201 365.88 55.7601 365.88 55.7401L365.84 55.2401L366.34 55.3001C366.46 55.3201 377.16 56.9401 380.12 55.3001C381.66 54.4401 381.66 52.5601 381.66 51.3201C381.66 50.5801 381.56 49.4001 381.5 48.5601C380.32 49.8401 377.54 52.1201 373.16 51.5401C366.52 50.6801 364.14 43.7601 363.4 40.8401C362.38 36.8601 362.2 19.8601 362.18 19.1401V18.7001L362.62 18.7401C362.62 18.7401 365.32 18.9801 366.3 19.0201C367.3 19.0801 369.52 18.9201 369.54 18.9201L369.96 18.8801V19.3001C369.98 19.4601 370.16 33.4801 371.06 38.1201C371.7 41.4201 372.76 43.4201 374.2 44.1001C375.2 44.5601 376.4 44.4001 377.82 43.6201C380.3 42.2601 380 37.4801 379.72 33.2601C379.66 32.1801 379.6 31.1201 379.58 30.1201C379.4 25.1801 378.6 17.7601 378.6 17.6801L378.54 17.2201H379C379 17.2201 381.18 17.3001 382.68 17.3001C384.18 17.3001 386.26 17.2401 386.26 17.2401H386.68L386.66 17.6401C386.66 17.7601 386.66 20.5401 388.92 40.9801C389.7 48.2001 389.3 60.9201 382.86 62.9001Z" fill="#137289"/>
<path d="M357.92 46.52V46.92H357.52C357.52 46.92 355.66 46.92 354.3 46.98C352.92 47.04 350.78 47.1 350.78 47.1H350.34V46.68C350.58 42.22 350.64 30.24 348.48 28.26C348.3 28.06 348.1 28 347.88 28.02C345.54 28.38 344.38 31.66 343.46 34.3C343.3 34.74 343.14 35.18 343 35.58C342 38.14 341.7 46.74 341.7 46.82V47.28L341.22 47.2C341.14 47.18 339.34 46.86 338.42 46.62C338.12 46.56 337.54 46.5 336.94 46.44C334.72 46.2 334.3 46.14 334.3 45.66C334.3 45.64 334.32 45.5 334.34 45.26C335.26 36.02 335.08 29.64 333.88 28.18C333.74 28.02 333.62 27.92 333.46 27.92C331.1 27.7 327.58 33.82 326.38 36.28C326.34 36.88 326.1 40.78 326.22 42.4C326.32 44.12 326.62 48.06 326.62 48.06V48.4L326.3 48.48C326.18 48.5 323.36 49.06 322.24 49.06C321.12 49.06 319.16 49.22 319.14 49.22L318.7 49.26V48.82C318.7 48.82 318.76 43 318.76 40.22C318.76 38.44 318.62 35.74 318.48 33.14C318.36 31.14 318.24 29.06 318.2 27.36L317.94 19.22H318.36C318.36 19.22 321.18 19.14 322.64 19.14C324.1 19.14 325.96 19.36 326.04 19.38L326.5 19.44L326.38 19.88C326.38 19.88 325.98 21.36 325.98 22.9C325.98 23.44 325.96 24.42 325.96 25.26C327.56 22.92 331.46 18.06 335.58 18.68C339.22 19.18 340.68 24 341.2 26.56C342.34 23.68 345.28 17.64 350.12 17.64H350.5C355.2 18 356.3 24.18 357.2 29.14L357.34 29.92C358.2 34.66 357.94 46.04 357.92 46.52Z" fill="#137289"/>
<path d="M253.501 48.8002C253.501 48.8002 252.981 42.3202 252.981 39.4202C252.981 36.5202 253.381 21.2602 253.381 21.1202V20.7802L253.061 20.7202C253.061 20.7202 250.521 20.2402 249.441 20.0202C248.341 19.7402 246.781 19.3802 246.781 19.3802L246.321 19.2802L246.141 21.9402C244.981 20.6402 242.361 18.3402 238.121 18.3402H237.781C230.861 18.5402 225.481 24.5802 224.061 33.7602C223.281 38.7002 224.261 43.2602 226.801 46.6002C228.901 49.3602 231.961 51.0802 235.381 51.4802C235.821 51.5402 236.241 51.5602 236.661 51.5602C241.761 51.5602 245.501 48.0802 246.981 46.4602L247.121 49.3602L247.461 49.4002C247.461 49.4002 249.361 49.5802 250.461 49.5202C251.801 49.4602 253.121 49.2402 253.161 49.2202L253.521 49.1602V48.8002H253.501ZM231.261 33.2802C231.741 29.5002 233.721 25.2602 237.841 24.6802C238.981 24.5202 240.401 25.1002 241.741 26.3002C243.521 27.9202 245.401 30.9602 245.241 34.6202C245.201 36.3802 243.821 40.7802 241.161 43.2402C239.821 44.5002 238.341 45.0802 236.721 45.0202C235.241 44.9402 234.041 44.3402 233.121 43.2602C231.121 40.8402 230.861 36.3802 231.261 33.2802Z" fill="#137289"/>
<path d="M220.121 42.16L220.001 42.5C219.921 42.74 217.921 48.4 212.921 50.58C211.661 51.12 210.321 51.4 208.921 51.4C207.121 51.4 205.221 50.96 203.221 50.06C198.321 47.88 195.501 42.7 195.501 36.08C195.501 35.66 195.521 35.24 195.541 34.82C195.941 27.56 199.941 19.04 206.841 16.8C209.261 16.02 211.461 16.16 213.401 17.24C217.461 19.46 218.901 24.88 218.961 25.1L219.041 25.38L218.801 25.54C218.801 25.54 217.541 26.34 216.821 27C216.021 27.76 213.941 29.72 213.941 29.72L213.481 30.14L213.301 29.54C213.301 29.54 211.901 25.4 209.201 25.2C208.381 25.14 207.461 25.52 206.561 26.32C204.561 28.12 203.141 31.56 203.041 34.86C202.881 39.84 204.701 42.96 208.141 43.64C211.041 44.22 213.741 39.16 213.781 39.12L213.961 38.76L214.301 38.94C214.301 38.94 216.421 40 217.401 40.64C218.301 41.26 219.781 42 219.801 42L220.121 42.16Z" fill="#137289"/>
<path d="M31.5671 40.0644C31.6293 41.8433 30.7817 43.9341 29.081 46.2349C26.5578 49.625 23.1371 51.3855 18.9796 51.5307C14.2825 51.6947 10.5464 50.7245 7.90975 48.5752C6.73555 47.6156 5.62175 46.0935 4.68899 44.0248C3.06566 40.5193 2.03346 33.311 1.91061 29.7931C1.73053 24.6363 2.96451 20.4306 5.53748 17.319C8.07536 14.3486 11.6822 12.7617 16.2594 12.6019C18.8978 12.5098 21.2138 12.9292 23.0276 13.8665C24.6167 14.6715 26.0206 15.9032 27.1743 17.4239C28.2247 18.8481 28.7662 20.0299 28.8011 21.0293C28.8312 21.8888 28.3987 22.6844 27.5636 23.414C26.7664 24.0822 25.8596 24.4741 24.9002 24.5076C23.9407 24.5411 23.1452 24.1086 22.397 23.3142C21.7302 22.557 21.0633 21.7998 20.3951 21.0027C19.2911 19.7604 17.9509 19.2069 16.272 19.2655C12.0745 19.4121 10.1288 22.722 10.3655 29.4979C10.4918 33.1157 11.4996 39.6245 13.0334 41.7122C14.5672 43.8 16.3431 44.7986 18.4018 44.7267C20.4606 44.6548 22.3796 43.4471 24.2203 41.1414C24.7962 40.4409 25.3486 39.6412 25.9224 38.8807C26.8118 37.9891 27.6966 37.5379 28.716 37.5023C29.4955 37.4751 30.1428 37.6726 30.7006 38.1735C31.2577 38.6543 31.5599 39.2842 31.5871 40.0637L31.5671 40.0644Z" fill="#F05A26" stroke="#F05A26" stroke-width="0.8"/>
<path d="M60.201 24.2176C57.5441 20.6427 53.8485 18.7326 49.2114 18.5707C45.0939 18.4269 41.625 19.7666 38.9247 22.5941C36.1823 25.4802 34.7042 29.411 34.5353 34.248C34.4187 37.586 34.8467 40.8029 35.8407 43.8594C36.7058 46.5913 37.8153 48.6313 39.1491 49.9786C41.393 52.1983 45.0124 53.4254 49.8495 53.5943C53.6471 53.7269 56.9859 52.1024 59.7457 48.7167C62.3159 45.6045 63.6815 42.03 63.8155 38.1923C64.0165 32.4358 62.8 27.7305 60.1817 24.1969L60.201 24.2176ZM50.2337 46.6034C47.7752 46.5176 45.8898 45.4911 44.4392 43.4793C42.8707 41.4033 42.1482 38.5964 42.2724 35.0385C42.3841 31.8405 43.1117 29.3443 44.3482 27.7465C45.5868 26.0887 47.2723 25.3871 49.411 25.4618C51.05 25.5191 52.652 26.6357 54.2412 28.6924C55.4871 30.8372 56.0822 33.2794 55.988 35.9778C55.7374 43.1534 53.7908 46.7476 50.233 46.6234L50.2337 46.6034Z" fill="#F05A26" stroke="#F05A26" stroke-width="0.8"/>
<path d="M91.5659 23.1151C91.7428 26.4904 89.964 27.3247 88.4061 27.4063C87.3476 27.4618 86.4268 27.0895 85.6081 26.3713C85.3097 26.0265 84.6823 25.1381 83.6872 23.7282C82.6027 22.1428 81.4613 21.3815 80.3628 21.4391C79.5439 21.482 78.9636 21.8729 78.605 22.6728C77.323 25.3435 76.7264 27.718 76.829 29.6753C76.8552 30.1746 77.0534 32.0468 77.3386 35.1962C77.6459 38.3845 77.8786 41.2963 78.0179 43.9527C78.2282 47.9672 77.0957 50.0493 74.7389 50.1728C72.7416 50.2775 71.204 49.2165 70.1901 47.0666L70.1807 46.8869L69.7317 42.5244C68.7009 31.6434 68.057 24.7076 67.9157 22.0113C67.6718 17.3577 68.8255 14.914 71.2422 14.7873C73.0597 14.6921 74.2599 15.8108 74.807 18.2255C76.6776 15.7041 78.8118 14.3906 81.0887 14.2713C84.0047 14.1185 86.4663 14.8506 88.4348 16.4899C90.3434 18.1322 91.4214 20.3588 91.568 23.155L91.5659 23.1151Z" fill="#F05A26" stroke="#F05A26" stroke-width="0.8"/>
<path d="M121.266 50.9225C121.257 50.3212 121.217 49.1775 121.168 47.4326C121.165 44.8288 121.224 42.1683 121.363 39.5119L121.72 32.7013C122.091 25.631 121.983 21.5798 121.51 20.2732C121.141 19.2926 120.167 18.7809 118.669 18.7024C117.39 18.6354 115.808 19.0131 115.294 21.1892C113.631 19.68 111.849 18.9057 109.971 18.8073C106.736 18.6378 104.18 19.2449 102.426 20.6149C97.3825 24.3761 94.6811 29.682 94.3315 36.3529C94.0751 41.2461 95.1009 45.3655 97.3974 48.55C99.6886 51.8344 102.804 53.5398 106.638 53.7408C109.015 53.8653 111.581 52.678 114.374 50.2008C114.863 53.1103 116.064 54.6353 117.982 54.7358C119.4 54.8101 121.171 54.2621 121.324 51.3461L121.348 50.8867L121.308 50.8846L121.266 50.9225ZM107.51 47.4178C105.833 47.3298 104.496 46.4787 103.483 44.7834C102.473 43.0281 102.016 40.6809 102.169 37.745C102.372 33.8703 103.275 30.7933 104.754 28.5476C106.148 26.4177 107.84 25.4649 109.897 25.5727C110.856 25.623 112.257 26.0168 114.041 26.7512C114.08 28.6759 114.058 30.6374 113.95 32.6946C113.429 42.6409 111.245 47.6135 107.51 47.4178Z" fill="#F05A26" stroke="#F05A26" stroke-width="0.8"/>
<path d="M145.852 50.9632C144.583 51.5905 142.774 52.226 140.617 52.3391C139.798 52.382 138.915 52.3482 137.986 52.1966C136.997 52.0481 135.159 51.7439 133.409 50.4538C133.389 50.4548 133.368 50.4359 133.347 50.417C133.034 50.193 132.72 49.9291 132.404 49.6252C131.855 49.0932 131.404 48.516 131.073 47.9325C131.052 47.9136 131.031 47.8947 131.05 47.8736C130.896 47.6014 130.762 47.348 130.608 47.0757C130.472 46.7824 130.336 46.4691 130.26 46.1727C130.037 44.9627 129.856 43.8106 129.7 42.7373L129.698 42.6973C128.963 37.8492 128.721 34.3771 128.654 31.9572C128.514 26.9978 128.477 25.1372 128.477 25.1372C128.413 22.3967 128.371 20.4363 128.318 19.4377C128.251 18.1594 128.093 16.2851 127.887 13.8726C127.617 11.4034 127.48 9.548 127.415 8.3097C127.326 6.61203 127.714 5.22981 128.477 4.12835C129.279 2.98485 130.389 2.38593 131.807 2.31161C133.305 2.23311 134.39 2.67694 134.939 3.60946C135.29 4.19189 135.522 5.1811 135.636 6.59706L135.66 7.05643C135.66 7.05643 135.682 8.23691 135.719 11.6196C135.745 14.7826 135.88 18.1201 136.059 21.5354C136.39 27.8468 136.705 28.8917 137.073 35.5415C137.2 37.9582 137.265 39.9576 137.298 41.3577L137.318 41.7372C137.29 41.979 137.243 42.2218 137.216 42.4636C137.24 42.5424 137.284 42.6202 137.309 42.719C137.292 43.1605 137.368 43.8375 137.728 44.2191C138.023 44.4841 138.468 44.5809 139.196 44.703C140.528 44.9135 141.729 44.5102 142.49 44.1298C144.385 43.2094 146.669 43.9909 147.588 45.8654C148.508 47.7598 147.726 50.0239 145.852 50.9632Z" fill="#F05A26" stroke="#F05A26" stroke-width="0.8"/>
</svg>
